<svg width="108" height="20" viewBox="0 0 108 20" fill="none" xmlns="http://www.w3.org/2000/svg">
<path d="M10.7784 15.8267H5.1192L4.212 18.4444H0.3456L5.832 3.62444H10.1088L15.5952 18.4444H11.6856L10.7784 15.8267ZM9.828 13.04L7.9488 7.61444L6.0912 13.04H9.828ZM16.5306 12.5333C16.5306 11.3229 16.761 10.2604 17.2218 9.34556C17.697 8.43074 18.3378 7.72704 19.1442 7.23444C19.9506 6.74185 20.8506 6.49556 21.8442 6.49556C22.6362 6.49556 23.3562 6.6574 24.0042 6.98111C24.6666 7.30482 25.185 7.74111 25.5594 8.29V2.82222H29.253V18.4444H25.5594V16.7556C25.2138 17.3185 24.717 17.7689 24.069 18.1067C23.4354 18.4444 22.6938 18.6133 21.8442 18.6133C20.8506 18.6133 19.9506 18.3671 19.1442 17.8744C18.3378 17.3678 17.697 16.6571 17.2218 15.7422C16.761 14.8133 16.5306 13.7437 16.5306 12.5333ZM25.5594 12.5544C25.5594 11.6537 25.3002 10.943 24.7818 10.4222C24.2778 9.90149 23.6586 9.64111 22.9242 9.64111C22.1898 9.64111 21.5634 9.90149 21.045 10.4222C20.541 10.9289 20.289 11.6326 20.289 12.5333C20.289 13.434 20.541 14.1518 21.045 14.6867C21.5634 15.2074 22.1898 15.4678 22.9242 15.4678C23.6586 15.4678 24.2778 15.2074 24.7818 14.6867C25.3002 14.166 25.5594 13.4552 25.5594 12.5544ZM47.3043 6.53778C48.802 6.53778 49.99 6.98111 50.8683 7.86778C51.7612 8.75444 52.2075 9.98593 52.2075 11.5622V18.4444H48.5355V12.0478C48.5355 11.2878 48.3268 10.7037 47.9091 10.2956C47.506 9.87333 46.9444 9.66222 46.2243 9.66222C45.5043 9.66222 44.9356 9.87333 44.5179 10.2956C44.1148 10.7037 43.9131 11.2878 43.9131 12.0478V18.4444H40.2411V12.0478C40.2411 11.2878 40.0324 10.7037 39.6147 10.2956C39.2116 9.87333 38.65 9.66222 37.9299 9.66222C37.2099 9.66222 36.6412 9.87333 36.2235 10.2956C35.8204 10.7037 35.6187 11.2878 35.6187 12.0478V18.4444H31.9251V6.66444H35.6187V8.14222C35.9932 7.64963 36.4827 7.2626 37.0875 6.98111C37.6923 6.68556 38.3763 6.53778 39.1395 6.53778C40.0467 6.53778 40.8532 6.72778 41.5587 7.10778C42.2788 7.48778 42.8404 8.02963 43.2435 8.73333C43.6612 8.08593 44.2299 7.55815 44.9499 7.15C45.67 6.74185 46.4547 6.53778 47.3043 6.53778ZM56.6484 5.44C56.0004 5.44 55.4676 5.25704 55.05 4.89111C54.6468 4.51111 54.4452 4.04667 54.4452 3.49778C54.4452 2.93482 54.6468 2.47037 55.05 2.10444C55.4676 1.72444 56.0004 1.53444 56.6484 1.53444C57.282 1.53444 57.8004 1.72444 58.2036 2.10444C58.6212 2.47037 58.83 2.93482 58.83 3.49778C58.83 4.04667 58.6212 4.51111 58.2036 4.89111C57.8004 5.25704 57.282 5.44 56.6484 5.44ZM58.4844 6.66444V18.4444H54.7908V6.66444H58.4844ZM68.5051 6.53778C69.9163 6.53778 71.0395 6.98815 71.8746 7.88889C72.7243 8.77556 73.149 10 73.149 11.5622V18.4444H69.477V12.0478C69.477 11.2596 69.2683 10.6474 68.8506 10.2111C68.4331 9.77482 67.8715 9.55667 67.1659 9.55667C66.4603 9.55667 65.8987 9.77482 65.4811 10.2111C65.0635 10.6474 64.8546 11.2596 64.8546 12.0478V18.4444H61.1611V6.66444H64.8546V8.22667C65.2291 7.70593 65.7331 7.29778 66.3667 7.00222C67.0003 6.6926 67.7131 6.53778 68.5051 6.53778ZM85.7598 7.93111C85.7598 9.19778 85.335 10.2182 84.4854 10.9922C83.6357 11.7663 82.3613 12.1533 80.6622 12.1533H77.6166V18.4444H76.1046V3.68778H80.6622C82.347 3.68778 83.6141 4.07482 84.4638 4.84889C85.3278 5.62296 85.7598 6.65037 85.7598 7.93111ZM80.6622 10.8867C83.0238 10.8867 84.2046 9.90149 84.2046 7.93111C84.2046 6.94593 83.9238 6.2 83.3622 5.69333C82.8006 5.18667 81.9006 4.93333 80.6622 4.93333H77.6166V10.8867H80.6622ZM89.8088 8.96556C90.1399 8.24778 90.644 7.69185 91.3208 7.29778C92.012 6.90371 92.8544 6.70667 93.848 6.70667V8.24778H93.4376C92.3431 8.24778 91.4648 8.53629 90.8024 9.11333C90.1399 9.69037 89.8088 10.6544 89.8088 12.0056V18.4444H88.2968V6.91778H89.8088V8.96556ZM101.285 18.6133C100.176 18.6133 99.1753 18.374 98.2825 17.8956C97.4041 17.4029 96.7057 16.7133 96.1873 15.8267C95.6834 14.926 95.4313 13.8774 95.4313 12.6811C95.4313 11.4849 95.6905 10.4433 96.2089 9.55667C96.7273 8.65593 97.433 7.96629 98.3257 7.48778C99.2185 6.99518 100.219 6.74889 101.328 6.74889C102.437 6.74889 103.438 6.99518 104.33 7.48778C105.238 7.96629 105.943 8.65593 106.447 9.55667C106.966 10.4433 107.225 11.4849 107.225 12.6811C107.225 13.8633 106.966 14.9049 106.447 15.8056C105.929 16.7063 105.216 17.4029 104.309 17.8956C103.402 18.374 102.394 18.6133 101.285 18.6133ZM101.285 17.3256C102.062 17.3256 102.783 17.1567 103.445 16.8189C104.107 16.4671 104.64 15.9463 105.043 15.2567C105.461 14.5529 105.67 13.6944 105.67 12.6811C105.67 11.6678 105.468 10.8163 105.065 10.1267C104.662 9.42296 104.129 8.90222 103.466 8.56444C102.804 8.2126 102.084 8.03667 101.306 8.03667C100.529 8.03667 99.809 8.2126 99.1465 8.56444C98.4841 8.90222 97.9514 9.42296 97.5481 10.1267C97.1593 10.8163 96.9649 11.6678 96.9649 12.6811C96.9649 13.6944 97.1593 14.5529 97.5481 15.2567C97.9514 15.9463 98.4769 16.4671 99.1249 16.8189C99.7874 17.1567 100.507 17.3256 101.285 17.3256Z" fill="#212529"/>
</svg>
