<svg width="16" height="16" viewBox="0 0 16 16" fill="none" xmlns="http://www.w3.org/2000/svg">
<g clip-path="url(#clip0_1_10)">
<path d="M4.06558 1.04676C2.83891 1.68676 1.61225 2.91343 0.972246 4.19343C-2.54775 11.0734 4.06558 17.9534 11.5856 15.3401C12.8656 14.9134 13.6656 14.8601 14.6256 15.3401L15.9056 15.9268V11.0734C15.9056 5.15343 14.8389 2.64676 11.6389 0.99343C9.0256 -0.339902 6.6256 -0.339902 4.06558 1.04676ZM11.1589 4.67343C13.2389 6.80678 13.2389 9.04678 11.1589 11.1801C10.0923 12.2468 9.07893 12.7268 7.9056 12.7268C6.73227 12.7268 5.71893 12.2468 4.65225 11.1801C2.57225 9.04678 2.57225 6.80678 4.65225 4.67343C5.71893 3.60676 6.73227 3.12676 7.9056 3.12676C9.07893 3.12676 10.0923 3.60676 11.1589 4.67343Z" fill="#212529"/>
<path d="M6.3056 6.59344C5.5056 7.55344 5.77227 8.99344 6.99893 9.74011C8.81227 10.9134 10.8923 8.30011 9.5056 6.59344C8.65227 5.58011 7.15893 5.58011 6.3056 6.59344Z" fill="#212529"/>
</g>
<defs>
<clipPath id="clip0_1_10">
<rect width="16" height="16" fill="white"/>
</clipPath>
</defs>
</svg>
